<svg xmlns="http://www.w3.org/2000/svg" width="1300" height="440" viewBox="0 0 1300 440" role="img" aria-label="그레이스 싱글 터미널" data-content-x="120" data-content-y="120" data-content-width="1060" data-content-height="200">
<title>그레이스 싱글 터미널</title><defs><linearGradient id="new-grace-top" gradientUnits="userSpaceOnUse" x1="0" y1="-20" x2="0" y2="-120"><stop offset="0" stop-color="#fff" stop-opacity="0.8"/><stop offset="1" stop-color="#fff" stop-opacity="0"/></linearGradient><linearGradient id="new-grace-bottom" gradientUnits="userSpaceOnUse" x1="0" y1="220" x2="0" y2="320"><stop offset="0" stop-color="#fff" stop-opacity="0.8"/><stop offset="1" stop-color="#fff" stop-opacity="0"/></linearGradient><linearGradient id="new-grace-left" gradientUnits="userSpaceOnUse" x1="-20" y1="0" x2="-120" y2="0"><stop offset="0" stop-color="#fff" stop-opacity="0.8"/><stop offset="1" stop-color="#fff" stop-opacity="0"/></linearGradient><linearGradient id="new-grace-right" gradientUnits="userSpaceOnUse" x1="1080" y1="0" x2="1180" y2="0"><stop offset="0" stop-color="#fff" stop-opacity="0.8"/><stop offset="1" stop-color="#fff" stop-opacity="0"/></linearGradient><radialGradient id="new-grace-tl" gradientUnits="userSpaceOnUse" cx="-20" cy="-20" r="100"><stop offset="0" stop-color="#fff" stop-opacity="0.8"/><stop offset="1" stop-color="#fff" stop-opacity="0"/></radialGradient><radialGradient id="new-grace-tr" gradientUnits="userSpaceOnUse" cx="1080" cy="-20" r="100"><stop offset="0" stop-color="#fff" stop-opacity="0.8"/><stop offset="1" stop-color="#fff" stop-opacity="0"/></radialGradient><radialGradient id="new-grace-bl" gradientUnits="userSpaceOnUse" cx="-20" cy="220" r="100"><stop offset="0" stop-color="#fff" stop-opacity="0.8"/><stop offset="1" stop-color="#fff" stop-opacity="0"/></radialGradient><radialGradient id="new-grace-br" gradientUnits="userSpaceOnUse" cx="1080" cy="220" r="100"><stop offset="0" stop-color="#fff" stop-opacity="0.8"/><stop offset="1" stop-color="#fff" stop-opacity="0"/></radialGradient></defs>
<g transform="translate(120 120)"><g data-layer="grace"><g data-fade-distance="100" data-max-alpha="0.8"><rect x="-20" y="-120" width="1100" height="100" fill="url(#new-grace-top)"/><rect x="-20" y="220" width="1100" height="100" fill="url(#new-grace-bottom)"/><rect x="-120" y="-20" width="100" height="240" fill="url(#new-grace-left)"/><rect x="1080" y="-20" width="100" height="240" fill="url(#new-grace-right)"/><rect x="-120" y="-120" width="100" height="100" fill="url(#new-grace-tl)"/><rect x="1080" y="-120" width="100" height="100" fill="url(#new-grace-tr)"/><rect x="-120" y="220" width="100" height="100" fill="url(#new-grace-bl)"/><rect x="1080" y="220" width="100" height="100" fill="url(#new-grace-br)"/></g><path d="M-20 -20H1080V220H-20Z M-10 -10V210H1070V-10Z" fill="#fff" fill-rule="evenodd"/><path d="M-10 -10H1070V210H-10Z M-0 -0V200H1060V-0Z" fill="#000" fill-rule="evenodd"/></g></g>
</svg>
