<svg xmlns="http://www.w3.org/2000/svg" width="1060" height="200" viewBox="0 0 1060 200" role="img" aria-label="입체 싱글 포인트 노트 · 윗면 100 / 외곽 106" data-revision="10" data-attachment-x="30" data-attachment-width="1000">
<title>입체 싱글 포인트 노트 · 윗면 100 / 외곽 106</title>

<defs><linearGradient id="p-shell" gradientUnits="userSpaceOnUse" x1="0" y1="0" x2="0" y2="200"><stop offset="0" stop-color="#153358" stop-opacity="1"/><stop offset="0.06" stop-color="#08172e" stop-opacity="1"/><stop offset="0.19" stop-color="#1b3a68" stop-opacity="1"/><stop offset="0.8" stop-color="#0d2648" stop-opacity="1"/><stop offset="1" stop-color="#06132c" stop-opacity="1"/></linearGradient>
<linearGradient id="p-rim" gradientUnits="userSpaceOnUse" x1="0" y1="0" x2="0" y2="200"><stop offset="0" stop-color="#34699c" stop-opacity="0.8"/><stop offset="0.16" stop-color="#4f8cc5" stop-opacity="0.65"/><stop offset="0.2" stop-color="#091429" stop-opacity="0"/><stop offset="0.93" stop-color="#1e5596" stop-opacity="0.8"/><stop offset="1" stop-color="#163a71" stop-opacity="0.42"/></linearGradient>
<linearGradient id="p-top" gradientUnits="userSpaceOnUse" x1="0" y1="11" x2="0" y2="34"><stop offset="0" stop-color="#4f7eaf" stop-opacity="1"/><stop offset="0.18" stop-color="#71a6d3" stop-opacity="1"/><stop offset="0.76" stop-color="#a6d8f5" stop-opacity="1"/><stop offset="1" stop-color="#d9f1ff" stop-opacity="1"/></linearGradient>
<linearGradient id="p-top-polish" gradientUnits="userSpaceOnUse" x1="0" y1="11" x2="0" y2="34"><stop offset="0" stop-color="#102843" stop-opacity="0.28"/><stop offset="0.22" stop-color="#cde7ff" stop-opacity="0.1"/><stop offset="0.68" stop-color="#f4faff" stop-opacity="0.32"/><stop offset="0.8" stop-color="#ffffff" stop-opacity="0.92"/><stop offset="1" stop-color="#d8edff" stop-opacity="0.55"/></linearGradient>
<linearGradient id="p-end" gradientUnits="userSpaceOnUse" x1="10" y1="80" x2="78" y2="80"><stop offset="0" stop-color="#6c93bf" stop-opacity="1"/><stop offset="0.2" stop-color="#5d8abd" stop-opacity="1"/><stop offset="0.63" stop-color="#4d7daf" stop-opacity="1"/><stop offset="0.65" stop-color="#94c2ee" stop-opacity="1"/><stop offset="0.96" stop-color="#a0d9fa" stop-opacity="1"/><stop offset="1" stop-color="#d0f2ff" stop-opacity="1"/></linearGradient>
<linearGradient id="p-blue-slot" gradientUnits="userSpaceOnUse" x1="78" y1="80" x2="95" y2="80"><stop offset="0" stop-color="#0752ad" stop-opacity="1"/><stop offset="0.33" stop-color="#003682" stop-opacity="1"/><stop offset="0.73" stop-color="#064599" stop-opacity="1"/><stop offset="1" stop-color="#126fd1" stop-opacity="1"/></linearGradient>
<linearGradient id="p-dark-panel" gradientUnits="userSpaceOnUse" x1="119" y1="90" x2="217" y2="90"><stop offset="0" stop-color="#108bfa" stop-opacity="1"/><stop offset="0.07" stop-color="#096bca" stop-opacity="1"/><stop offset="0.24" stop-color="#154677" stop-opacity="1"/><stop offset="0.54" stop-color="#142f52" stop-opacity="1"/><stop offset="0.92" stop-color="#102745" stop-opacity="1"/><stop offset="1" stop-color="#0a1e39" stop-opacity="1"/></linearGradient>
<linearGradient id="p-blue-panel" gradientUnits="userSpaceOnUse" x1="221" y1="90" x2="388" y2="90"><stop offset="0" stop-color="#597da7" stop-opacity="1"/><stop offset="0.02" stop-color="#4c6d99" stop-opacity="1"/><stop offset="0.23" stop-color="#4b6e9e" stop-opacity="1"/><stop offset="0.52" stop-color="#4b80ba" stop-opacity="1"/><stop offset="0.75" stop-color="#5995d1" stop-opacity="1"/><stop offset="0.751" stop-color="#8bbbe7" stop-opacity="1"/><stop offset="0.99" stop-color="#8acdfa" stop-opacity="1"/><stop offset="1" stop-color="#bfefff" stop-opacity="1"/></linearGradient>
<linearGradient id="p-face-light" gradientUnits="userSpaceOnUse" x1="0" y1="34" x2="0" y2="185"><stop offset="0" stop-color="#b1ddff" stop-opacity="0.29"/><stop offset="0.11" stop-color="#69aaff" stop-opacity="0.09"/><stop offset="0.36" stop-color="#04142b" stop-opacity="0.08"/><stop offset="0.72" stop-color="#0d2848" stop-opacity="0.02"/><stop offset="1" stop-color="#539eff" stop-opacity="0.13"/></linearGradient>
<linearGradient id="p-center-metal" gradientUnits="userSpaceOnUse" x1="396" y1="0" x2="664" y2="0"><stop offset="0" stop-color="#4b729b" stop-opacity="1"/><stop offset="0.16" stop-color="#597fa5" stop-opacity="1"/><stop offset="0.42" stop-color="#6b92b8" stop-opacity="1"/><stop offset="0.55" stop-color="#7399ba" stop-opacity="1"/><stop offset="0.551" stop-color="#90afca" stop-opacity="1"/><stop offset="0.72" stop-color="#86a6c4" stop-opacity="1"/><stop offset="1" stop-color="#6285a8" stop-opacity="1"/></linearGradient>
<linearGradient id="p-rail" gradientUnits="userSpaceOnUse" x1="95" y1="0" x2="118" y2="0"><stop offset="0" stop-color="#eeffff" stop-opacity="1"/><stop offset="0.1" stop-color="#caffff" stop-opacity="1"/><stop offset="0.48" stop-color="#b8fafa" stop-opacity="1"/><stop offset="0.86" stop-color="#a5faff" stop-opacity="1"/><stop offset="1" stop-color="#f1ffff" stop-opacity="1"/></linearGradient>
<linearGradient id="p-bottom" gradientUnits="userSpaceOnUse" x1="0" y1="185" x2="0" y2="200"><stop offset="0" stop-color="#295d9b" stop-opacity="1"/><stop offset="0.17" stop-color="#173a6a" stop-opacity="1"/><stop offset="0.58" stop-color="#102953" stop-opacity="1"/><stop offset="1" stop-color="#040e23" stop-opacity="1"/></linearGradient>
<linearGradient id="p-front-rim" gradientUnits="userSpaceOnUse" x1="0" y1="185" x2="1060" y2="185"><stop offset="0" stop-color="#598fc5" stop-opacity="1"/><stop offset="0.2" stop-color="#1b4b88" stop-opacity="1"/><stop offset="0.42" stop-color="#507ca9" stop-opacity="1"/><stop offset="0.5" stop-color="#7c9fbc" stop-opacity="1"/><stop offset="0.58" stop-color="#507ca9" stop-opacity="1"/><stop offset="0.8" stop-color="#1b4b88" stop-opacity="1"/><stop offset="1" stop-color="#598fc5" stop-opacity="1"/></linearGradient>
<linearGradient id="p-gloss-face" gradientUnits="userSpaceOnUse" x1="0" y1="34" x2="0" y2="185"><stop offset="0" stop-color="#f2f8ff" stop-opacity="0.2"/><stop offset="0.2" stop-color="#f2f8ff" stop-opacity="0.08"/><stop offset="0.38" stop-color="#ffffff" stop-opacity="0"/><stop offset="0.4" stop-color="#081321" stop-opacity="0.12"/><stop offset="0.59" stop-color="#081321" stop-opacity="0.2"/><stop offset="0.68" stop-color="#081321" stop-opacity="0.04"/><stop offset="0.88" stop-color="#e7f3ff" stop-opacity="0.04"/><stop offset="1" stop-color="#e7f3ff" stop-opacity="0.2"/></linearGradient>
<filter id="p-halo" x="-80%" y="-150%" width="260%" height="400%" color-interpolation-filters="sRGB"><feGaussianBlur stdDeviation="9"/></filter>
<filter id="p-material-brighter" filterUnits="userSpaceOnUse" x="0" y="0" width="1060" height="200" color-interpolation-filters="sRGB"><feComponentTransfer><feFuncR type="linear" slope="1.08"/><feFuncG type="linear" slope="1.08"/><feFuncB type="linear" slope="1.08"/><feFuncA type="identity"/></feComponentTransfer></filter>
<clipPath id="p-clip"><path d="M30 0H1030L1060 29V191L1051 200H9L0 191V29Z" fill="#fff"/></clipPath>
<clipPath id="p-lit-surface"><path d="M30 11H1030L1050 34H10Z" fill="#fff"/><path d="M10 34H1050V185H10Z" fill="#fff"/></clipPath>
<clipPath id="p-metal-face"><rect x="10" y="34" width="68" height="151" fill="#fff"/><rect x="982" y="34" width="68" height="151" fill="#fff"/><rect x="118" y="34" width="99" height="151" fill="#fff"/><rect x="843" y="34" width="99" height="151" fill="#fff"/><rect x="221" y="34" width="167" height="151" fill="#fff"/><rect x="672" y="34" width="167" height="151" fill="#fff"/><rect x="396" y="34" width="268" height="151" fill="#fff"/></clipPath></defs>
<g data-material="point-brighter" filter="url(#p-material-brighter)">
<g id="point-note-base" data-layer="base">
  <path d="M30 0H1030L1060 29V191L1051 200H9L0 191V29Z" fill="url(#p-shell)"/>
  <path d="M30 11H1030L1050 34H10Z" fill="#709cc8"/>
  <path d="M10 34H1050V185H10Z" fill="#4c6f9c"/>
  <rect x="10" y="34" width="68" height="151" fill="#638cbb"/>
<rect x="78" y="34" width="17" height="151" fill="#064493"/>
<rect x="95" y="34" width="23" height="151" fill="#6cbcd6"/>
<rect x="118" y="34" width="99" height="151" fill="#122c4b"/>
<rect x="217" y="34" width="4" height="151" fill="#0a1d37"/>
<rect x="221" y="34" width="124" height="151" fill="#5176a2"/>
<rect x="345" y="34" width="43" height="151" fill="#8ebae2"/>
<rect x="388" y="34" width="8" height="151" fill="#102743"/>
<path d="M30 11H95.385L78 34H10Z" fill="#b8daf1"/>
<path d="M95.385 11H111.731L95 34H78Z" fill="#348fc1"/>
<path d="M111.731 11H133.846L118 34H95Z" fill="#c2f4f4"/>
<path d="M133.846 11H229.038L217 34H118Z" fill="#739dc5"/>
<path d="M229.038 11H232.885L221 34H217Z" fill="#355f8c"/>
<path d="M232.885 11H393.462L388 34H221Z" fill="#8dbfea"/>
<path d="M393.462 11H401.154L396 34H388Z" fill="#345777"/>
<g transform="translate(1060 0) scale(-1 1)"><rect x="10" y="34" width="68" height="151" fill="#638cbb"/>
<rect x="78" y="34" width="17" height="151" fill="#064493"/>
<rect x="95" y="34" width="23" height="151" fill="#6cbcd6"/>
<rect x="118" y="34" width="99" height="151" fill="#122c4b"/>
<rect x="217" y="34" width="4" height="151" fill="#0a1d37"/>
<rect x="221" y="34" width="124" height="151" fill="#5176a2"/>
<rect x="345" y="34" width="43" height="151" fill="#8ebae2"/>
<rect x="388" y="34" width="8" height="151" fill="#102743"/>
<path d="M30 11H95.385L78 34H10Z" fill="#b8daf1"/>
<path d="M95.385 11H111.731L95 34H78Z" fill="#348fc1"/>
<path d="M111.731 11H133.846L118 34H95Z" fill="#c2f4f4"/>
<path d="M133.846 11H229.038L217 34H118Z" fill="#739dc5"/>
<path d="M229.038 11H232.885L221 34H217Z" fill="#355f8c"/>
<path d="M232.885 11H393.462L388 34H221Z" fill="#8dbfea"/>
<path d="M393.462 11H401.154L396 34H388Z" fill="#345777"/></g>
  <path d="M401.154 11H658.846L664 34H396Z" fill="#8faec9"/>
  <rect x="396" y="34" width="268" height="151" fill="#557da5"/>
  <path d="M10 185H1050L1060 191L1051 200H9L0 191Z" fill="url(#p-bottom)"/>
</g>
<g id="point-note-reflection" data-layer="reflection" clip-path="url(#p-clip)">
  <rect x="10" y="34" width="68" height="151" fill="url(#p-end)"/>
<rect x="78" y="34" width="17" height="151" fill="url(#p-blue-slot)"/>
<rect x="118" y="34" width="99" height="151" fill="url(#p-dark-panel)"/>
<rect x="221" y="34" width="167" height="151" fill="url(#p-blue-panel)"/>
<rect x="217" y="34" width="1.6" height="151" fill="#020e22" opacity=".72"/>
<rect x="219" y="34" width="2" height="151" fill="#b1d8f2" opacity=".65"/>
<rect x="222" y="34" width="1.2" height="151" fill="#071b33" opacity=".28"/>
<rect x="10" y="34" width="1.5" height="151" fill="#d1eaff" opacity=".52"/>
<rect x="76" y="34" width="1.4" height="151" fill="#d4f4ff" opacity=".88"/>
<rect x="345" y="34" width="1.1" height="151" fill="#aad7f7" opacity=".48"/>
<rect x="388" y="34" width="1.5" height="151" fill="#07182b" opacity=".7"/>
<rect x="394.5" y="34" width="1.5" height="151" fill="#9fbbd3" opacity=".6"/>
<path d="M30 11H95.385L78 34H10Z" fill="#eefaff" opacity=".63"/>
<path d="M133.846 11H229.038L217 34H118Z" fill="url(#p-top)" opacity=".64"/>
<path d="M232.885 11H393.462L388 34H221Z" fill="url(#p-top)" opacity=".75"/>
<path d="M229.038 11H230.481L218.5 34H217Z" fill="#224064" opacity=".6"/>
<path d="M232.885 11H233.942L222.1 34H221Z" fill="#d2edff" opacity=".64"/>
<g transform="translate(1060 0) scale(-1 1)"><rect x="10" y="34" width="68" height="151" fill="url(#p-end)"/>
<rect x="78" y="34" width="17" height="151" fill="url(#p-blue-slot)"/>
<rect x="118" y="34" width="99" height="151" fill="url(#p-dark-panel)"/>
<rect x="221" y="34" width="167" height="151" fill="url(#p-blue-panel)"/>
<rect x="217" y="34" width="1.6" height="151" fill="#020e22" opacity=".72"/>
<rect x="219" y="34" width="2" height="151" fill="#b1d8f2" opacity=".65"/>
<rect x="222" y="34" width="1.2" height="151" fill="#071b33" opacity=".28"/>
<rect x="10" y="34" width="1.5" height="151" fill="#d1eaff" opacity=".52"/>
<rect x="76" y="34" width="1.4" height="151" fill="#d4f4ff" opacity=".88"/>
<rect x="345" y="34" width="1.1" height="151" fill="#aad7f7" opacity=".48"/>
<rect x="388" y="34" width="1.5" height="151" fill="#07182b" opacity=".7"/>
<rect x="394.5" y="34" width="1.5" height="151" fill="#9fbbd3" opacity=".6"/>
<path d="M30 11H95.385L78 34H10Z" fill="#eefaff" opacity=".63"/>
<path d="M133.846 11H229.038L217 34H118Z" fill="url(#p-top)" opacity=".64"/>
<path d="M232.885 11H393.462L388 34H221Z" fill="url(#p-top)" opacity=".75"/>
<path d="M229.038 11H230.481L218.5 34H217Z" fill="#224064" opacity=".6"/>
<path d="M232.885 11H233.942L222.1 34H221Z" fill="#d2edff" opacity=".64"/></g>
  <path d="M401.154 11H658.846L664 34H396Z" fill="url(#p-top)" opacity=".62"/>
  <rect x="396" y="34" width="268" height="151" fill="url(#p-center-metal)" data-surface="center-metal"/>
  <path d="M30 11H1030L1050 34H10Z" fill="url(#p-top-polish)"/>
  <rect x="10" y="34" width="1040" height="151" fill="url(#p-face-light)"/>
  <g data-reflection="gloss" clip-path="url(#p-metal-face)">
    <rect x="10" y="34" width="1040" height="151" fill="url(#p-gloss-face)"/>
  </g>
  <rect x="10" y="32.5" width="1040" height="2.5" fill="#e7f8ff" opacity=".78"/>
  <rect x="10" y="35" width="1040" height="1.3" fill="#b1d5ef" opacity=".32"/>
  <rect x="10" y="184" width="1040" height="1.5" fill="url(#p-front-rim)"/>
  <path d="M30 0H1030L1060 29V191L1051 200H9L0 191V29Z" fill="none" stroke="url(#p-rim)" stroke-width="1.6"/>
  <path d="M30 1H1030" fill="none" stroke="#699bca" stroke-opacity=".48" stroke-width="1"/>
</g>
</g>
<g id="point-note-emission" data-layer="emission" clip-path="url(#p-lit-surface)">
  <rect x="78" y="29" width="53" height="161" fill="#007bff" opacity=".47" filter="url(#p-halo)"/>
<path d="M111.731 11H133.846L118 34H95Z" fill="#e3ffff"/>
<rect x="95" y="34" width="23" height="151" fill="url(#p-rail)"/>
<rect x="95" y="34" width="1.5" height="151" fill="#fff"/>
<rect x="116.5" y="34" width="1.5" height="151" fill="#f2ffff"/>
<g transform="translate(1060 0) scale(-1 1)"><rect x="78" y="29" width="53" height="161" fill="#007bff" opacity=".47" filter="url(#p-halo)"/>
<path d="M111.731 11H133.846L118 34H95Z" fill="#e3ffff"/>
<rect x="95" y="34" width="23" height="151" fill="url(#p-rail)"/>
<rect x="95" y="34" width="1.5" height="151" fill="#fff"/>
<rect x="116.5" y="34" width="1.5" height="151" fill="#f2ffff"/></g>
</g>
</svg>
